<svg version="1.1" id="Layer_1" xmlns="http://www.w3.org/2000/svg" xmlns:xlink="http://www.w3.org/1999/xlink" x="0px" y="0px"
	 width="100%" viewBox="0 0 640 416" enable-background="new 0 0 640 416" xml:space="preserve">
<path fill="#000000" opacity="1.000000" stroke="none" 
	d="
M211.213104,354.794495 
	C198.558411,341.319244 196.483841,331.064728 205.070068,315.181244 
	C210.089554,305.895813 210.378738,298.632385 204.641434,289.229950 
	C191.854721,268.274933 194.933258,246.780838 206.437103,226.158768 
	C208.835754,221.858856 208.711029,219.280975 205.161148,215.889496 
	C197.974213,209.023254 192.664017,200.760971 189.100098,191.439560 
	C187.892395,188.280869 186.738464,184.821823 188.309097,181.715332 
	C195.460114,167.571548 196.538788,152.032471 199.205505,136.832062 
	C200.005524,132.272018 201.321716,127.717628 203.072311,123.434860 
	C204.601654,119.693321 203.717209,117.670998 200.418198,115.707443 
	C187.485596,108.010071 175.492065,99.038872 164.832077,88.379036 
	C149.769577,73.316772 136.681793,56.807430 127.868713,37.220768 
	C127.322411,36.006626 126.773041,34.791142 126.303207,33.546795 
	C126.141129,33.117516 126.217018,32.598389 126.182190,32.090965 
	C128.303040,30.173065 130.371536,31.568653 132.276810,32.195759 
	C155.196976,39.739738 175.468399,52.055229 194.310287,66.895126 
	C204.953033,75.277382 214.434402,84.889091 223.143051,95.218361 
	C225.922943,98.515579 228.572144,97.641647 231.566055,96.471703 
	C246.680801,90.565247 262.356262,88.283890 278.542877,88.696991 
	C292.751678,89.059624 306.213623,92.508652 319.186218,97.992256 
	C322.664459,99.462532 325.198212,99.226501 328.336243,97.076401 
	C353.742981,79.668411 381.644104,68.337433 412.204498,64.182457 
	C422.566284,62.773678 433.118195,62.757244 443.585083,62.135784 
	C444.779999,62.064835 445.902405,62.389339 446.728119,63.569122 
	C446.932526,65.950325 445.153137,67.394905 443.750580,68.951111 
	C421.778931,93.330193 394.944214,109.951820 363.474884,119.147247 
	C359.641754,120.267296 355.789368,121.321487 351.943634,122.398148 
	C349.353790,123.123199 347.578644,124.441002 348.899750,127.416565 
	C358.925812,149.998489 358.005096,174.623413 361.863068,198.322769 
	C366.064392,224.131042 371.420135,249.637009 377.645966,275.000092 
	C379.151337,281.132751 380.125946,287.394073 381.498596,293.561951 
	C381.902771,295.378174 381.478973,298.213745 383.950165,298.507690 
	C387.434662,298.922211 390.298065,296.712830 392.888763,294.654877 
	C394.711914,293.206665 393.517670,291.288666 392.771057,289.630493 
	C391.061829,285.834259 389.420471,282.002502 387.559692,278.281067 
	C386.073029,275.307861 386.564362,273.308990 389.650024,271.813507 
	C393.244537,270.071411 396.677673,267.997314 400.265533,266.240326 
	C403.222504,264.792328 403.951874,262.898743 402.642456,259.799744 
	C399.532867,252.440094 396.735382,244.948532 393.623291,237.590012 
	C392.065613,233.906906 392.733398,231.697205 396.692230,230.307114 
	C402.501038,228.267395 408.190216,225.886459 413.926453,223.640945 
	C419.487152,221.464127 419.988770,220.270538 416.710968,215.305847 
	C406.247620,199.457932 395.682831,183.676956 385.142120,167.880173 
	C380.350342,160.698975 380.241760,160.565247 387.377197,155.992569 
	C416.402313,137.392090 444.738525,117.693192 474.913879,100.922531 
	C483.586700,96.102394 483.598816,96.135178 487.874817,105.030319 
	C496.675812,123.338562 506.288116,141.259171 514.182495,160.000259 
	C517.446716,167.749481 517.375977,168.541016 509.497406,171.286377 
	C487.961975,178.790619 466.478058,186.477203 444.476196,192.563904 
	C436.819397,194.682129 436.808502,194.667770 439.136993,202.291901 
	C441.664612,210.568146 444.076202,218.883179 446.797394,227.095474 
	C448.095581,231.013336 447.525696,233.257446 443.217499,234.567261 
	C436.853546,236.502121 430.695953,239.106415 424.365540,241.164383 
	C420.736786,242.344070 419.672516,244.288269 420.843964,247.922089 
	C422.886292,254.257278 424.574188,260.707153 426.637054,267.035126 
	C427.859741,270.785828 426.849701,273.014343 423.170502,274.457001 
	C418.056030,276.462463 413.150757,279.035187 407.970062,280.827911 
	C403.397247,282.410248 402.982117,284.938965 404.881012,288.789032 
	C406.132263,291.325897 407.053253,294.027710 408.337616,296.545746 
	C410.189392,300.176239 409.522888,302.344696 405.380890,303.619568 
	C399.498108,305.430267 393.774536,307.752228 387.921265,309.667267 
	C384.778107,310.695618 383.758545,312.657654 383.268799,315.876038 
	C380.134979,336.470520 372.780121,354.695496 353.909088,366.169128 
	C349.739044,368.704498 346.560394,372.425781 343.156006,375.836212 
	C338.633667,380.366608 333.285065,383.705078 327.953369,387.127197 
	C323.975647,389.680298 320.211334,389.030090 316.837006,386.451874 
	C313.329712,383.772095 315.381134,380.431885 316.574921,377.363556 
	C318.659729,372.005005 318.297333,371.166595 312.559052,369.994934 
	C302.779266,367.998016 293.008087,365.911377 283.161438,364.302094 
	C272.016418,362.480621 260.987579,366.260345 249.848618,365.554749 
	C240.970505,364.992310 233.804276,368.281769 227.324280,374.102264 
	C223.745880,377.316498 219.462555,379.696930 215.056671,381.746399 
	C212.572372,382.901947 210.182312,382.959076 208.084763,381.066742 
	C206.022797,379.206482 205.595978,376.932861 206.557693,374.248901 
	C207.920700,370.444977 209.605621,366.753326 212.206985,363.735382 
	C215.151932,360.318878 215.071075,357.659180 211.213104,354.794495 
z"/>
</svg>